<mxfile host="app.diagrams.net" modified="2022-02-09T03:42:57.026Z" agent="5.0 (Windows NT 10.0; Win64; x64) AppleWebKit/537.36 (KHTML, like Gecko) Chrome/98.0.4758.82 Safari/537.36" etag="Og_3BfdnyliG0YXP8005" version="16.5.3" type="github">
  <diagram id="ka9EOJAELgnnNQ_SWJG2" name="Page-1">
    <mxGraphModel dx="1422" dy="828" grid="1" gridSize="10" guides="1" tooltips="1" connect="1" arrows="1" fold="1" page="1" pageScale="1" pageWidth="850" pageHeight="1100" math="0" shadow="0">
      <root>
        <mxCell id="0" />
        <mxCell id="1" parent="0" />
        <mxCell id="jUw2_VmWkCa6cTS5c1rj-3" style="edgeStyle=orthogonalEdgeStyle;rounded=0;orthogonalLoop=1;jettySize=auto;html=1;" edge="1" parent="1" source="XPmNMmqTWOrP7fZrcmtY-1" target="XPmNMmqTWOrP7fZrcmtY-3">
          <mxGeometry relative="1" as="geometry" />
        </mxCell>
        <mxCell id="jUw2_VmWkCa6cTS5c1rj-4" style="edgeStyle=orthogonalEdgeStyle;rounded=0;orthogonalLoop=1;jettySize=auto;html=1;" edge="1" parent="1" source="XPmNMmqTWOrP7fZrcmtY-1">
          <mxGeometry relative="1" as="geometry">
            <mxPoint x="220" y="150" as="targetPoint" />
          </mxGeometry>
        </mxCell>
        <mxCell id="XPmNMmqTWOrP7fZrcmtY-1" value="Policy Details Extraction" style="rounded=1;whiteSpace=wrap;html=1;fontStyle=1" parent="1" vertex="1">
          <mxGeometry x="360" y="70" width="120" height="60" as="geometry" />
        </mxCell>
        <mxCell id="XPmNMmqTWOrP7fZrcmtY-2" value="Criteria&lt;br&gt;&lt;div style=&quot;text-align: left&quot;&gt;&lt;span&gt;1. Campaign: 17 - 31 Jan 2022&lt;/span&gt;&lt;/div&gt;&lt;div style=&quot;text-align: left&quot;&gt;&lt;span&gt;2. No cancellation/Over free-look period&lt;/span&gt;&lt;/div&gt;&lt;div style=&quot;text-align: left&quot;&gt;&lt;span&gt;3. Promo code: MAIDUP&lt;/span&gt;&lt;/div&gt;&lt;div style=&quot;text-align: left&quot;&gt;&lt;br&gt;&lt;/div&gt;&lt;div style=&quot;text-align: left&quot;&gt;&lt;span&gt;**Checked no MAIDUP promo outside the campaign period&lt;/span&gt;&lt;/div&gt;&lt;div style=&quot;text-align: left&quot;&gt;&lt;span&gt;**Checked there is no Cancelled status&lt;/span&gt;&lt;/div&gt;&lt;div style=&quot;text-align: left&quot;&gt;&lt;span&gt;**Checked there is no other product with this promo code&lt;/span&gt;&lt;/div&gt;" style="rounded=1;whiteSpace=wrap;html=1;" parent="1" vertex="1">
          <mxGeometry x="60" y="150" width="320" height="170" as="geometry" />
        </mxCell>
        <mxCell id="XPmNMmqTWOrP7fZrcmtY-3" value="Dataset&lt;br&gt;&lt;div style=&quot;text-align: left&quot;&gt;&lt;span&gt;1. Look at &#39;Online -&amp;gt; T.Proposal&#39;&lt;/span&gt;&lt;/div&gt;&lt;div style=&quot;text-align: left&quot;&gt;&lt;span&gt;2. Check what information is missing from this dataset&lt;/span&gt;&lt;/div&gt;&lt;div style=&quot;text-align: left&quot;&gt;&lt;span&gt;3. Do a left join to merge the dataset with the required information&lt;/span&gt;&lt;/div&gt;" style="rounded=1;whiteSpace=wrap;html=1;spacingLeft=15;spacingRight=15;" parent="1" vertex="1">
          <mxGeometry x="500" y="180" width="320" height="130" as="geometry" />
        </mxCell>
        <mxCell id="XPmNMmqTWOrP7fZrcmtY-5" value="Reminder&lt;br&gt;1. Output as .xlsx&lt;br&gt;2. Encryption of files" style="rounded=1;whiteSpace=wrap;html=1;strokeColor=default;fontColor=#FF6666;" parent="1" vertex="1">
          <mxGeometry x="80" y="410" width="120" height="60" as="geometry" />
        </mxCell>
        <mxCell id="XPmNMmqTWOrP7fZrcmtY-6" value="1. Check on whether the customer is new/return&lt;br&gt;- extract a list of unique identifier&lt;br&gt;- create a master list with the same product with all lapsed, inforced, cancelled policies&lt;br&gt;- check against the master list &lt;br&gt;(count if whether it appears more than 2 times)" style="rounded=1;whiteSpace=wrap;html=1;fontColor=#000000;strokeColor=default;spacingLeft=15;spacingRight=15;align=left;" parent="1" vertex="1">
          <mxGeometry x="450" y="410" width="220" height="160" as="geometry" />
        </mxCell>
        <mxCell id="XPmNMmqTWOrP7fZrcmtY-7" value="2. Check whether this customer has another policy with the company&lt;br&gt;- extract a list of unique identifier&lt;br&gt;- create a master list (contains all the information for other products)&lt;br&gt;- check against the master list (count if whether it appears more than 2 times)" style="rounded=1;whiteSpace=wrap;html=1;fontColor=#000000;strokeColor=default;spacingLeft=15;spacingRight=15;align=left;" parent="1" vertex="1">
          <mxGeometry x="720" y="410" width="240" height="160" as="geometry" />
        </mxCell>
        <mxCell id="XPmNMmqTWOrP7fZrcmtY-10" value="Reference&lt;br&gt;&lt;div style=&quot;text-align: left&quot;&gt;&lt;span&gt;1.&amp;nbsp;&lt;/span&gt;&lt;span style=&quot;background-color: rgb(248 , 248 , 248)&quot;&gt;&lt;font color=&quot;#1d1c1d&quot;&gt;K:\09_Data_Analytics\Sonic\SQL Scripts\11_11_Policy_Extraction_FE.sql&lt;/font&gt;&lt;/span&gt;&lt;/div&gt;&lt;span style=&quot;background-color: rgb(248 , 248 , 248)&quot;&gt;&lt;div style=&quot;text-align: left&quot;&gt;&lt;span style=&quot;color: rgb(29 , 28 , 29)&quot;&gt;2. K:\09_Data_Analytics\99_Recurring scripts\Customer Product Holding&lt;/span&gt;&lt;/div&gt;&lt;/span&gt;" style="rounded=1;whiteSpace=wrap;html=1;fontColor=#000000;strokeColor=default;" parent="1" vertex="1">
          <mxGeometry x="70" y="480" width="260" height="90" as="geometry" />
        </mxCell>
        <mxCell id="XPmNMmqTWOrP7fZrcmtY-11" value="1. Name -&amp;gt; (T_Customer)&lt;br&gt;2. Purchase_date -&amp;gt; Insert_Time (T_Proposal)&lt;br&gt;3. Start_date -&amp;gt; Start_Date (T_Proposal)&lt;br&gt;4. Free-look_date -&amp;gt; Insert_Time + 14 days (T_Proposal)&lt;br&gt;5. Past_FL_date -&amp;gt; if today &amp;gt; Freelook_date then &quot;Yes&quot; (T_Proposal)&lt;br&gt;6. NRIC -&amp;gt; (T_Customer)&lt;br&gt;7. Email -&amp;gt; (T_Customer)&lt;br&gt;8. Policy_Number -&amp;gt; (T_Proposal)&lt;br&gt;9. Product -&amp;gt; (T_product)&lt;br&gt;10. Product_Name -&amp;gt; (T_product)&lt;br&gt;11. Total_Premium -&amp;gt; (T_Proposal)&lt;br&gt;12. Payment Type -&amp;gt;&amp;nbsp;&lt;br&gt;13. Promo_code -&amp;gt; Coupon_Code (T_Proposal)&lt;br&gt;14. New/Returning ePROTECT&lt;br&gt;15. Having other policy with the company&lt;br&gt;16. (Same as 15)&lt;br&gt;17. Eligible Cashback Amount -&amp;gt; End_Date - Start_Date" style="text;html=1;strokeColor=none;fillColor=none;align=left;verticalAlign=middle;whiteSpace=wrap;rounded=0;fontSize=12;fontColor=#000000;" parent="1" vertex="1">
          <mxGeometry x="60" y="740" width="520" height="190" as="geometry" />
        </mxCell>
        <mxCell id="mUjsZRYLafECx2S0r-g5-1" value="&lt;span style=&quot;background-color: rgb(248 , 248 , 248)&quot;&gt;&lt;font&gt;To check&lt;br&gt;&lt;div style=&quot;text-align: left&quot;&gt;i) Policy Insert_Time within promo period but without promo code&amp;nbsp;&lt;/div&gt;&lt;div style=&quot;text-align: left&quot;&gt;Answer:&amp;nbsp;&lt;/div&gt;&lt;div style=&quot;text-align: left&quot;&gt;- There are &#39;Pending Data Entry&#39; policies -&amp;gt; without &#39;Policy No&#39; and &#39;Coupon Code&#39;&lt;/div&gt;&lt;div style=&quot;text-align: left&quot;&gt;- They are duplicates until data entry complete&lt;/div&gt;&lt;div style=&quot;text-align: left&quot;&gt;ii) Compare against other promo code campaign (number of cases)&lt;/div&gt;&lt;/font&gt;&lt;/span&gt;" style="rounded=1;whiteSpace=wrap;html=1;fontColor=#000000;strokeColor=default;" parent="1" vertex="1">
          <mxGeometry x="450" y="600" width="500" height="130" as="geometry" />
        </mxCell>
        <mxCell id="jUw2_VmWkCa6cTS5c1rj-5" value="Pre-processing&lt;br&gt;i) Duplicate of NRIC&lt;br&gt;-&amp;gt; purchase of multiple policy? (&#39;Sxxx775I&#39;)" style="rounded=1;whiteSpace=wrap;html=1;" vertex="1" parent="1">
          <mxGeometry x="590" y="320" width="340" height="80" as="geometry" />
        </mxCell>
        <mxCell id="jUw2_VmWkCa6cTS5c1rj-6" value="" style="shape=image;verticalLabelPosition=bottom;labelBackgroundColor=default;verticalAlign=top;aspect=fixed;imageAspect=0;image=data:image/png,iVBORw0KGgoAAAANSUhEUgAAAMcAAABpCAYAAACOEzdYAAAAAXNSR0IArs4c6QAAAARnQU1BAACxjwv8YQUAAAAJcEhZcwAADsMAAA7DAcdvqGQAAAurSURBVHhe7ZxNaFTJFsdP3kLwa52IDqZlcCNCcBFNhkcw4FKS6ZCgHURClsNjGBEZsE2I6cAg4kOGt5RmGLoDCekxuBzoIQyTTlxIQNyIpJVEkqzVhYL0O3Vv1f2u7r63O3rT+f+Gsu/3rTpV/1PnVHemrcIQAMDHv+QnAMADxAGABogDAA0QBwAaIA4ANEAcAGiAOADQAHEAoAHiAEADxAGABogDAA0QBwAaIA4ANEAcAGiAOADQEG9xbOZpqK2N2hxlZkWea1G2Z4dc7W1rm6GSPBedEs2IZ43kaVse2VVi1W+i7RFtKP7YKZaUMuKPsAJLMr8lL2otlu8Gt5coWcltyIsisVzJiOcM5yq7brlY9ZtsN2V4KzwxFYdqFFUyJXmI2conpaGdjd2q5IbtDvAaQg04+znegWIbMGc9n8tdjzk3cpWkOhdw3npP3nldiE6xBpWmba73VW+zwCm0TClAHJ72NGfghuk3dx29DkDdY9dLtVk9o1a/2XVRxVmneoinONRA8Q5Qw0BOI3oHiSr2NfWLw1+sjvEKQxXHYHN3tKP42hCMv54S8W6Xx6/dZnsweop6jqY9YQePj7r7TW8vVYf6xeEv5jNaVBzKMDUbozrDMXisgSE7KIw4rGs8z1XP8HeUfY/V2WpgBNRNj7fjq1CzzbXb47ev1ybRqLvfLHE62qupYz3i8PaBfY+6pg67BhDrhPxZuXr6WPozbXxmbqSow9gi6rh6k9ggRM/L4ZLP4RyNX5DbF8aJO4JovkxlTuWKE+Jghm5etd5CqRvGW3x1zFzqMTcu9Jv1CMUzKm/KTQ0127xZ5qcwrva461J+VTA+0z0qYe4l46lGexunVr9t/71AogbJ/DhJa3lsHoYM9ct29lwKb/FqxFIcHYlzxmfhlddM25QfsVc+Et+y/wmLGjxetJ2SoITotF2lgxJnxWfBLw5j5cdebYnU5rqpLc5q1Ntv6rpwcP/My80vRDxnDuXpJnpdS4Dbsz/QKBso3TNEee5EZeT0A3uJcnv2vukFzyYszypQ3kx5LT9pKqp3rTwy3kPDLAxr4Kbp/qz1Fso/MD34uYTzLdFRXi/d41x25PfcGOX6pqlXLsPWbPOJBBlXzI/SI9ke67xECYzDERFWO8oCpU4Yp6JRZ78R11HUoJB6ZLfVZXMbS2grRVcbvggitoojVhwdUIJif3cJkZw6Yldvsd4TIiGPHsfr2iJKuEWImm3WtafOxYNq1Ndvtr28xbKfykF8xZtz+PMWf85hFuf76yG24jAI6ER/sucdLN7ky33ev6xpG7kpS7mRxWHiH1xByWStNtv1ESWZz/nr4m1PyHpWpa5+c9fR7QBM3G1Ylm0OIw63PcOKo038wzfuY8Q3qCIhzdBy5badIIJ9D35bBYAGiONLsDLj+p2Rr0w3/usp0HwQVgGgATMHABogDgA0QBwAaIA4ANAAcQCgAeIAQAPEAYCGqt9zzM/P05UrV+Re8zh69Ci9e/dO7oG9xJEjR+j9+/dyrzU4ePBgYJuqimNtbY0+ffok95qHqIgwMth7tGrfdXd3yy2bquL4/Pkzffz4Ue41D/GTiSqvBTGmVfvu0KFDcssGOQcAGiAOADRAHABogDgA0ABxAKAB4gBAA8QBgAaIAwANTRDHKt07fJgOy5Ka25HHWx2z3fr26s/vzKUMW917Kg9Y7NDcNec95r6yrbN47zWe+cuq3HNi1kNdr97tK9fm+G0x4e0cpbz1c7bNc95n46f3XPdGHZMNikMYvp+m5J5gcexUQKe3ME9+0gxyt11sVum3MaLJOwM09Wt9A3Lyrw/04YOjvMzS2sUgcdXJnaL7eVyKZ8boVEwEsvPPY6LsuruOP583TwphnB6jLssmRepyjjlx/uKUw2ae8yFoTBxPl8wBoIz916RxeKoY5MFak67Lg7Tmbe/bJXpMkzSZlPtOhM2Sg3T92iANFB7T0lt5PAzHRyjPtp66eI+l1hzOX8tyfV7Ta7n/NXm9vkhdne1yz40QzmIyS9etn0Kdp+tZdjSyD1Z/H6NFHo+3HOdv8di09+unIXHsvF4zPif7paq7+3hIMC/exGeK3m06+2jwxZJrkBqe73Ifdcp9J6vFKRrgc+3H+b7kIj3+J6KlDFuv0Zso4oo1O/TmxQCt/WqHRc6Qqn0kTx9+HyGndISYTFZpadoxHhukIXHYlfIQEw/0ZWinvstrtGRN2zu09IRo8LsAafCU/3B6gM+Jrm2nkf9Mchj6W0Tv30mdLK7XTREHh4E/C4/bx372a8Njp8Dj6rIKq9Yp+6Jfk08x0qbZa6rmA9R53J0HRw0/m5CQg/bvHKGVEVINUt9xc9eJERLc+ZFG1DnD+085hPWFmObB5hg8hw+fojHK0rqK678qZhiUH1FzAzuRXzjkm35Ic15HIPMPyv7Xtikt0tjpJeozhMWlgfysIXF0nhqQWx6S7NXk5r5AhEgvzM5TIZU/YhaJOHtE18A0k/Z6E3M3wsMKLyl3wxCQkHtDlVhx/CR1yU0LSxjrDiEJeBZ5ecueATk/+/FOtDy4IXG0d5pVtl6sEvQzJ+Nr6F1BhFbE+QPHvEZIFdB6wzaTVPQOSrGIESUxN57XRSelOIy+CMr13r7hzCSiiL4GxjKsZ6HBaIPdVuMauWLlFkYzQ81GwyqVgCtveNFcvGxWQrSXEKEVjfVzeBIcUolEnIJi+u7rlA2bmFvLlQ4PKfqiMEY/edb0jdWbZHCdYokMNR86v+vhfIiy1822Wm0PWoEy8zjXKp6Rk0Qbkw3mHCI+LJoCkQzwNBdl2WzPY6w+cfuDQqqqHSRmnYGqifkUx8x2KMblNGc1L72DQ/TFOg0+OeW6tp84hIpzyOTDHFPiuwmzDZwPnSlaM4Qhdv702UR9R9N9i2djon51XM4wUcYk/kwWhAJ/JgsAgDgA0AFxAKAB4gBAA8QBgAaIAwANEAcAGiAOADRAHABoqPkNuSgAKMRwEd+StxoHDhyQWzZVxQHAfgZhFQAaIA4ANEAcAGiAOADQAHEAoAHiAEADxAGABogDAA0QBwAamiaO7dkh42cFMyvyAGgyJZqpZt/NPA21DVF+U+7vY9RYNEt0mzRBHNuUH2mjY6mC3Ae7Qw/drlTo9gW5CwIRwjiWOkfLbCvxy6hK6RyNfjPDriU8DYpDeLNjNDpPlBwO+v/t728MDzZdotK08mKm53d5Nj5vYzoa6xyXodltec4/czifO5Qty6MC/7XGO0fy/AaBOM8edUXMNvIZ1rm9zDYV/yhQMj/OrkRyYZxyw2kqRohomjBzZAyV/u97uQvcTPRS8ZLpxbbySUr38Cz76qbp1TZylJy4L6d9IQx2NGeXzXPy+kLqh8CwQAij93mOtoxrt2joeZrCzd0FGu0p0035ruWzo3Rszwukg1JzFVq42iH3BWUqs/OOQoPiEFP9bVulwM9wjsZlKNTx7yFK8n+5MWmxE/00NFygsjH4zY6t3LGtaV4fRImKE+yWbqT4LgHf+4CFZmzXT6Zk913PGN8/v0DFFstZtmfvU9rRB2FoWkIO6uUcJU7ITQ1WuPTNaPBssFmmZywF13NOJPjJYQi6Xwm1NTDzD6LcA+VEwgFxxAglCitcEmGXPAfCYQljY4FSNZyRDogjNohQiUOuDRbFXA1PF+TljdkkDEH3e2aTPYpwMuaKVXRhCCCOWOEcsCWa0YVVnCmMi+T+gUqgOZm/4bw2QYlhovSfaiWsRI8Cltrt+/mKLN9/92ZDgykOiBmjd0IsEjWeC0McsaGHbpcyxmqWuTx7nxIby5ThIb/wt38NqePqgrnCZFx7jMrfO0MwmaBP9MpnFamfn+0lc7Ys75ehnGMxYG+inECaemW7VLGXxOsHf0O+LxHfc/TyB75UrAZmDgA0QBwAaEBYBYAGzBwAaIA4ANAAcQCgAeIAQAPEAYAGiAMADRAHABogDgA0QBwAaIA4ANAAcQCgAeIAIBCi/wNKEbmsRxRp/wAAAABJRU5ErkJggg==;" vertex="1" parent="1">
          <mxGeometry x="1010" y="420" width="199" height="105" as="geometry" />
        </mxCell>
        <mxCell id="jUw2_VmWkCa6cTS5c1rj-7" value="To highlight&lt;br&gt;i) there are two policies with &#39;maidup&#39; code&lt;br&gt;- Think should be still eligible but will highlight this in our reply" style="rounded=1;whiteSpace=wrap;html=1;" vertex="1" parent="1">
          <mxGeometry x="1000" y="310" width="360" height="100" as="geometry" />
        </mxCell>
      </root>
    </mxGraphModel>
  </diagram>
</mxfile>
